<svg width="60" height="65" viewBox="0 0 60 65" fill="none" xmlns="http://www.w3.org/2000/svg">
<path d="M57.7514 52.9601C53.4333 58.2894 47.5398 62.1159 40.9145 63.8918C34.2893 65.6677 27.2721 65.3019 20.8674 62.8469C14.4627 60.3918 8.9989 55.9733 5.25827 50.2239C1.51763 44.4746 -0.308087 37.6891 0.0424746 30.839C0.393036 23.9888 2.9019 17.4252 7.20991 12.0877C11.5179 6.75024 17.4042 2.9126 24.0261 1.12418C30.6479 -0.664248 37.6658 -0.31176 44.0752 2.13118C50.4845 4.57412 55.9566 8.98225 59.7081 14.7245L52.324 19.5487C49.5906 15.3648 45.6036 12.153 40.9337 10.3731C36.2639 8.59316 31.1506 8.33634 26.3258 9.63939C21.5011 10.9425 17.2123 13.7386 14.0735 17.6275C10.9347 21.5164 9.10668 26.2987 8.85126 31.2898C8.59584 36.2808 9.92607 41.2247 12.6515 45.4138C15.377 49.6028 19.3579 52.8221 24.0244 54.6109C28.6909 56.3997 33.8037 56.6662 38.6309 55.3723C43.4581 54.0783 47.7521 51.2903 50.8983 47.4074L57.7514 52.9601Z" fill="#25AD95"/>
</svg>
